<svg version="1.0" xmlns="http://www.w3.org/2000/svg" viewBox="0 0 475.000000 1279.000000">
<g transform="translate(0.000000,1279.000000) scale(0.100000,-0.100000)"
fill="#000000" stroke="none">
<path d="M4200 12295 l0 -495 -780 0 -780 0 0 -325 0 -325 278 0 277 -1 -78
-38 c-109 -55 -220 -143 -291 -231 -101 -127 -186 -332 -203 -492 l-6 -57 -65
92 c-36 51 -122 149 -191 218 -184 183 -372 304 -597 382 -168 59 -248 72
-439 72 -147 0 -182 -3 -259 -24 -425 -111 -706 -427 -781 -881 -23 -133 -16
-369 14 -511 60 -280 202 -558 400 -785 146 -168 313 -295 513 -392 64 -31
117 -59 118 -62 0 -3 -21 -16 -46 -30 -101 -53 -199 -170 -264 -314 -44 -99
-94 -265 -146 -486 -55 -235 -77 -290 -131 -318 -60 -33 -138 1 -175 76 -19
38 -23 63 -23 132 1 94 24 161 73 213 33 35 105 73 156 83 l39 7 -6 71 c-3 39
-11 177 -18 308 l-13 236 -35 -5 c-284 -39 -467 -196 -544 -463 -61 -211 -64
-563 -6 -789 83 -326 350 -522 652 -481 178 25 329 147 426 343 60 122 77 174
141 417 60 232 83 292 129 343 61 67 129 83 206 48 80 -36 124 -113 132 -231
14 -195 -86 -330 -278 -374 -33 -8 -63 -17 -66 -19 -4 -5 20 -413 33 -553 l5
-62 42 5 c252 29 484 180 581 377 71 146 100 312 99 586 0 161 -4 213 -22 297
-42 201 -111 334 -229 446 -34 32 -56 59 -49 61 7 2 53 13 102 25 175 42 366
156 492 294 143 157 240 372 272 601 5 37 11 69 13 71 2 2 39 -26 82 -61 142
-114 300 -179 508 -210 143 -21 389 -14 523 14 375 81 634 322 725 676 58 227
55 570 -7 786 -69 245 -255 460 -486 565 l-52 24 278 0 277 1 0 820 0 820
-260 0 -260 0 0 -495z m-2620 -1274 c598 -134 1092 -657 1216 -1286 23 -114
25 -388 5 -490 -67 -341 -254 -597 -536 -735 -311 -154 -686 -137 -1050 47
-108 55 -237 142 -323 219 -87 78 -364 446 -418 554 -52 105 -97 238 -126 373
-29 138 -31 400 -4 527 56 261 169 449 357 598 154 122 300 186 481 212 92 13
300 3 398 -19z m2365 -475 c192 -52 289 -155 314 -331 26 -183 -52 -350 -199
-425 -105 -53 -176 -65 -380 -65 -201 1 -262 11 -368 63 -72 35 -154 125 -182
199 -59 154 -23 340 85 448 53 53 144 99 236 120 88 20 409 14 494 -9z"/>
<path d="M1298 10497 c-26 -8 -65 -25 -87 -40 -136 -90 -147 -224 -41 -491 47
-116 50 -149 15 -172 -33 -22 -70 -8 -109 39 -37 46 -40 109 -8 154 l22 31
-82 103 -81 103 -39 -45 c-38 -44 -68 -118 -68 -170 0 -89 90 -259 187 -352
68 -66 99 -85 161 -98 108 -25 219 28 268 126 39 80 31 165 -30 340 -25 72
-46 142 -46 157 0 67 82 103 138 61 84 -62 97 -166 30 -240 l-20 -21 83 -106
84 -105 34 32 c18 17 46 59 62 92 37 76 40 167 8 247 -52 134 -188 296 -282
338 -58 26 -141 33 -199 17z"/>
<path d="M1905 9712 c-62 -8 -178 -73 -386 -219 -118 -83 -224 -159 -237 -169
l-23 -19 76 -110 c42 -60 82 -110 88 -109 7 1 118 77 247 169 289 207 317 220
371 166 41 -41 38 -72 -12 -126 l-41 -45 60 -67 c33 -38 74 -81 90 -97 28 -26
32 -27 51 -14 11 8 36 34 56 59 79 99 85 213 19 339 -89 170 -222 259 -359
242z"/>
<path d="M3449 8409 c-227 -33 -394 -109 -537 -244 -160 -151 -247 -323 -287
-568 -19 -120 -19 -384 0 -503 51 -316 217 -562 469 -696 l71 -37 -262 -1
-263 0 0 -325 0 -325 365 0 365 0 0 -345 0 -345 -365 0 -365 0 0 -325 0 -325
1040 0 1040 0 0 325 0 325 -420 0 -420 0 0 345 0 345 420 0 420 0 0 325 0 325
-262 0 -263 0 75 41 c264 144 416 373 466 704 23 146 14 469 -15 582 -59 233
-152 387 -311 516 -129 104 -312 178 -515 207 -82 11 -366 11 -446 -1z m503
-667 c99 -27 150 -53 202 -106 110 -109 143 -315 76 -470 -27 -64 -108 -147
-174 -179 -108 -53 -163 -62 -381 -61 -190 0 -204 1 -282 27 -141 47 -234 136
-273 265 -69 223 52 455 268 518 97 29 145 33 317 29 130 -2 188 -8 247 -23z"/>
<path d="M4009 3558 c-12 -40 -50 -167 -85 -283 -35 -115 -62 -210 -61 -210 1
-1 31 -9 67 -19 145 -39 254 -115 297 -208 70 -149 39 -356 -69 -453 -95 -87
-226 -119 -483 -118 -152 0 -192 4 -260 22 -181 49 -288 158 -314 322 -14 82
1 177 37 242 35 65 118 139 186 167 37 15 56 28 56 39 0 18 -118 552 -123 557
-5 6 -166 -64 -222 -96 -138 -79 -260 -201 -321 -322 -91 -180 -129 -507 -89
-770 42 -278 183 -517 384 -648 23 -15 22 -16 -55 -55 -236 -120 -344 -366
-344 -785 0 -396 94 -640 303 -784 89 -62 184 -89 307 -89 170 0 279 49 397
178 108 116 178 284 262 623 58 234 98 314 175 352 84 40 169 15 232 -67 40
-53 58 -134 51 -226 -14 -164 -120 -278 -287 -310 -54 -11 -60 -14 -60 -37 0
-14 7 -150 17 -304 l17 -278 81 4 c188 11 406 137 511 296 49 74 99 219 120
350 24 152 15 532 -15 649 -54 211 -163 375 -315 471 l-47 30 50 36 c70 52
169 161 214 237 47 81 94 224 112 348 30 199 15 511 -32 656 -80 250 -276 436
-557 530 -111 37 -111 37 -137 -47z m-636 -1919 c51 -10 111 -19 135 -19 23 0
42 -2 42 -4 0 -2 -18 -39 -40 -83 -52 -99 -117 -303 -165 -508 -64 -280 -79
-315 -148 -349 -36 -17 -41 -17 -82 -2 -84 32 -129 149 -106 277 20 117 88
193 199 225 31 9 58 18 60 19 3 3 -14 306 -23 413 -6 61 -5 63 16 57 11 -4 62
-15 112 -26z"/>
<path d="M1935 2014 c-402 -208 -487 -269 -551 -399 l-37 -74 -27 78 c-46 135
-113 225 -218 294 -105 70 -168 89 -302 94 -139 6 -221 -10 -322 -64 -133 -70
-217 -180 -260 -344 -21 -82 -22 -100 -25 -777 l-4 -692 1035 0 1036 0 0 325
0 325 -421 0 -422 0 5 63 c6 70 32 128 75 169 40 38 104 75 459 265 l314 168
0 368 c0 202 -3 367 -7 367 -5 0 -152 -75 -328 -166z m-1071 -665 c21 -6 56
-27 78 -47 57 -54 69 -108 75 -334 l5 -188 -207 0 -208 0 6 198 c5 220 17 280
66 326 29 28 90 55 126 56 11 0 37 -5 59 -11z"/>
</g>
</svg>
